<?xml version="1.0" encoding="UTF-8" standalone="no"?>
<!-- Created with Inkscape (http://www.inkscape.org/) -->

<svg
   width="7.4507403mm"
   height="9.5332689mm"
   viewBox="0 0 7.4507403 9.5332689"
   version="1.1"
   id="svg1"
   xmlns:inkscape="http://www.inkscape.org/namespaces/inkscape"
   xmlns:sodipodi="http://sodipodi.sourceforge.net/DTD/sodipodi-0.dtd"
   xmlns="http://www.w3.org/2000/svg"
   xmlns:svg="http://www.w3.org/2000/svg">
  <sodipodi:namedview
     id="namedview1"
     pagecolor="#505050"
     bordercolor="#eeeeee"
     borderopacity="1"
     inkscape:showpageshadow="0"
     inkscape:pageopacity="0"
     inkscape:pagecheckerboard="0"
     inkscape:deskcolor="#505050"
     inkscape:document-units="mm">
    <inkscape:page
       x="0"
       y="1.7928863e-21"
       width="7.4507403"
       height="9.5332689"
       id="page2"
       margin="0"
       bleed="0" />
  </sodipodi:namedview>
  <defs
     id="defs1" />
  <g
     inkscape:label="Layer 1"
     inkscape:groupmode="layer"
     id="layer1"
     transform="translate(-113.47036,-70.057146)">
    <path
       style="font-size:32px;line-height:47.2457px;font-family:'Noto Emoji';-inkscape-font-specification:'Noto Emoji';text-align:center;letter-spacing:0px;text-anchor:middle;white-space:pre;stroke-width:0.755906"
       d="m 442.61816,297.43918 q -1.95312,-0.0781 -3.54687,-0.92188 -1.59375,-0.84375 -2.70313,-2.23437 -1.09375,-1.39063 -1.57812,-3.125 -0.46875,-1.73438 -0.1875,-3.5625 0.32812,-2.10938 1.26562,-3.89063 0.9375,-1.79687 2.125,-3.20312 1.20313,-1.42188 2.32813,-2.40625 1.125,-1 1.85937,-1.51563 0.75,-0.53125 0.75,-0.53125 0,0 0.60938,0.42188 0.60937,0.42187 1.5625,1.25 0.96875,0.8125 2.04687,1.98437 1.09375,1.15625 2.04688,2.65625 0.96875,1.48438 1.57812,3.25 0.625,1.76563 0.625,3.78125 0,1.70313 -0.6875,3.1875 -0.6875,1.48438 -1.90625,2.59375 -1.20312,1.125 -2.79687,1.71875 -1.59375,0.60938 -3.39063,0.54688 z m -0.95312,-32.25 q -0.70313,0.40625 -1.125,1.125 -0.67188,1.17187 -1.48438,2.5625 -0.79687,1.39062 -1.53125,2.65625 -0.64062,-0.51563 -1.4375,-0.48438 -0.5625,0 -1.04687,0.25 -0.48438,0.25 -0.8125,0.6875 -4.25,5.26563 -5.23438,11.96875 -0.40625,3.1875 0.46875,6.26563 0.875,3.09375 2.92188,5.57812 1.79687,2.21875 4.32812,3.51563 2.53125,1.3125 5.375,1.48437 0.40625,0.0156 0.84375,0.0156 2.82813,-0.0156 5.42188,-1.10938 2.59375,-1.09375 4.57812,-3.10937 1.98438,-2 3.04688,-4.60938 1.0625,-2.60937 1.04687,-5.42187 0,-3.375 -0.95312,-6.3125 -0.95313,-2.9375 -2.45313,-5.375 -1.5,-2.45313 -3.17187,-4.34375 -1.65625,-1.90625 -3.125,-3.20313 -1.46875,-1.29687 -2.3125,-1.9375 -0.8125,-0.60937 -1.82813,-0.60937 -0.8125,0 -1.51562,0.40625 z m 1.98437,2 q 0.76563,0.57812 2.10938,1.78125 1.35937,1.1875 2.90625,2.9375 1.54687,1.73437 2.9375,3.98437 1.39062,2.23438 2.28125,4.92188 0.89062,2.6875 0.89062,5.75 0.0156,2.375 -0.875,4.5625 -0.89062,2.20312 -2.5625,3.89062 -1.65625,1.6875 -3.84375,2.60938 -2.1875,0.92187 -4.5625,0.9375 -0.35937,0 -0.71875,-0.0156 -2.64062,-0.15625 -4.8125,-1.40625 -2.15625,-1.23437 -3.65625,-3.23437 -1.5,-2.01563 -2.17187,-4.5 -0.67188,-2.5 -0.34375,-5.17188 0.92187,-6.09375 4.78125,-10.89062 0.0156,-0.0156 0.0312,-0.0312 0.0156,-0.0156 0.0469,-0.0156 0.125,0 0.25,0.5 0.125,0.48438 0.25,1.0625 0.14063,0.60938 0.26563,1.10938 0.14062,0.5 0.26562,0.5 0.0156,0 0.0312,-0.0156 0.0156,0 0.0312,-0.0156 0.125,-0.14063 0.57813,-0.89063 0.45312,-0.75 1.09375,-1.82812 0.64062,-1.09375 1.32812,-2.29688 0.70313,-1.20312 1.3125,-2.26562 0.625,-1.0625 1,-1.71875 0.10938,-0.1875 0.29688,-0.29688 0.1875,-0.10937 0.39062,-0.10937 0.26563,0 0.46875,0.15625 z"
       id="text1"
       transform="scale(0.26458333)"
       aria-label="🔥"
       inkscape:export-filename="fire_emoji.png"
       inkscape:export-xdpi="96"
       inkscape:export-ydpi="96" />
  </g>
</svg>
