<?xml version="1.0" encoding="UTF-8" standalone="no"?>
<!-- Created with Inkscape (http://www.inkscape.org/) -->

<svg
   width="4.4324322mm"
   height="5.0038862mm"
   viewBox="0 0 4.4324322 5.0038862"
   version="1.1"
   id="svg1"
   xmlns="http://www.w3.org/2000/svg"
   xmlns:svg="http://www.w3.org/2000/svg">
  <defs
     id="defs1">
    <clipPath
       clipPathUnits="userSpaceOnUse"
       id="clipPath420">
      <path
         d="M 0,0 H 792 V 612 H 0 Z"
         transform="translate(-205.18221,-509.56372)"
         id="path420" />
    </clipPath>
  </defs>
  <g
     id="layer1"
     transform="translate(-153.9875,-95.250005)">
    <path
       id="path419"
       d="m 0,0 c -0.683,-0.276 -1.367,-0.528 -2.05,-0.851 0.033,-0.6 0.066,-1.226 0.031,-1.806 0,0 -0.212,-0.003 -0.318,-0.004 -0.406,-1.475 -0.272,-3.531 -0.04,-4.999 0.058,-0.297 0.123,-0.633 0.195,-0.969 0.052,0.063 0.103,0.126 0.154,0.184 0.944,0.893 1.904,0.61 2.958,1.21 0.736,0.597 -1.277,-0.057 -2.943,-2.113 0.181,-0.691 0.393,-1.243 0.631,-1.24 0.569,0.281 1.132,0.479 1.691,0.617 -0.004,0.296 4.64,0.826 4.654,0.636 0.004,-10e-4 0.008,-10e-4 0.011,-0.002 -0.003,10e-4 -0.007,10e-4 -0.011,0.002 0.013,-0.167 0.183,-0.588 2.674,-0.558 0.106,0.001 0.319,0.004 0.425,0.005 0.413,0.886 0.834,1.186 1.259,1.191 -0.126,1.468 0.932,4.337 0.09,3.74 C 9.407,-4.664 9.069,-3.244 9.065,-2.95 9.896,-1.471 9.882,1.862 9.882,3.521 7.63,3.494 0.767,3.638 -2.662,3.584 -2.809,3.16 -2.112,0.409 -2.079,-0.289 -1.382,-0.177 -0.687,-0.136 0,0"
       style="fill:#000000;fill-opacity:1;fill-rule:nonzero;stroke:none"
       transform="matrix(0.35277776,0,0,-0.35277776,154.93377,96.518669)"
       clip-path="url(#clipPath420)" />
  </g>
</svg>
