<?xml version="1.0" encoding="UTF-8" standalone="no"?>
<!-- Created with Inkscape (http://www.inkscape.org/) -->

<svg
   width="2.0743566mm"
   height="1.6552365mm"
   viewBox="0 0 2.0743565 1.6552365"
   version="1.1"
   id="svg1"
   xml:space="preserve"
   xmlns="http://www.w3.org/2000/svg"
   xmlns:svg="http://www.w3.org/2000/svg"><defs
     id="defs1"><clipPath
       clipPathUnits="userSpaceOnUse"
       id="clipPath759"><path
         d="M 0,0 H 792 V 612 H 0 Z"
         id="path759" /></clipPath></defs><g
     id="g527"
     transform="matrix(0.26458333,0,0,0.26458334,-433.9167,-122.87674)"><g
       id="g757"><path
         id="path758"
         d="M 427.485,258.996 H 423 v 4.692 h 4.485 z m -2.898,2.18 c -0.285,-0.579 -0.123,-0.876 0.451,-0.853 0.258,0.011 0.543,0.088 0.76,0.225 0.468,0.294 0.768,0.943 0.288,1.452 -0.208,0.221 -0.519,0.382 -0.813,0.475 -0.671,0.213 -1.631,-0.253 -1.937,-0.89 -0.309,-0.642 -0.106,-1.34 0.439,-1.82 0.6,-0.53 1.294,-0.861 2.055,-0.671 1.629,0.405 1.954,2.119 1.363,3.292 -0.436,0.863 -1.793,1.622 -3.021,0.999 -0.477,-0.242 -0.9,-0.604 -1.056,-1.064 0.152,0.17 0.251,0.292 0.363,0.402 0.144,0.141 0.278,0.31 0.452,0.4 0.846,0.442 1.698,0.347 2.475,-0.136 0.573,-0.357 0.945,-0.925 0.874,-1.634 -0.084,-0.836 -0.75,-1.809 -1.749,-2.018 -0.752,-0.156 -1.528,0.338 -1.806,0.913 -0.409,0.844 0.319,1.916 1.274,1.93 0.649,0.009 0.927,-0.245 0.82,-0.863 -0.043,-0.246 -0.3,-0.455 -0.46,-0.681 -0.281,0.197 -0.513,0.361 -0.772,0.542"
         style="fill:#ffffff;fill-opacity:1;fill-rule:nonzero;stroke:none"
         transform="matrix(1.3333333,0,0,-1.3333333,1076,816)"
         clip-path="url(#clipPath759)" /></g><g
       id="g759"><path
         id="path760"
         d="m 0,0 c 0.11,-0.103 0.221,-0.206 0.331,-0.309 0.07,0.002 0.545,0.021 0.731,0.34 C 1.103,0.102 1.123,0.17 1.13,0.211 1.237,0.829 0.959,1.082 0.31,1.073 -0.645,1.06 -1.373,-0.013 -0.964,-0.857 -0.686,-1.432 0.09,-1.926 0.842,-1.769 1.841,-1.561 2.507,-0.587 2.591,0.249 2.662,0.957 2.29,1.526 1.717,1.882 0.94,2.365 0.088,2.46 -0.759,2.019 -0.932,1.928 -1.066,1.759 -1.21,1.618 -1.322,1.509 -1.421,1.386 -1.573,1.216 c 0.156,0.46 0.578,0.822 1.056,1.065 1.228,0.623 2.585,-0.136 3.021,-1 C 3.095,0.108 2.77,-1.605 1.141,-2.011 0.38,-2.2 -0.314,-1.869 -0.915,-1.34 -1.459,-0.86 -1.662,-0.162 -1.353,0.48 -1.047,1.118 -0.087,1.583 0.583,1.371 0.878,1.277 1.189,1.116 1.397,0.896 1.877,0.387 1.577,-0.262 1.109,-0.557 0.892,-0.693 0.607,-0.771 0.348,-0.781 0.161,-0.789 -0.084,-0.775 -0.179,-0.613 -0.27,-0.459 -0.2,-0.207 0,0"
         style="fill:#231f20;fill-opacity:1;fill-rule:nonzero;stroke:none"
         transform="matrix(1.3333333,0,0,-1.3333333,1642.2521,467.86053)" /></g><g
       id="g760"><path
         id="path761"
         d="M 0,0 2.325,-1.719 0.119,-3.628 0.678,-2.696 0.846,-1.722 0.75,-1.096 0.281,-0.375 Z"
         style="fill:#231f20;fill-opacity:1;fill-rule:nonzero;stroke:none"
         transform="matrix(1.3333333,0,0,-1.3333333,1644.7401,465.17493)" /></g></g></svg>
