<?xml version="1.0" encoding="UTF-8" standalone="no"?>
<!-- Created with Inkscape (http://www.inkscape.org/) -->

<svg
   width="1.5938505mm"
   height="1.6675783mm"
   viewBox="0 0 1.5938505 1.6675783"
   version="1.1"
   id="svg1"
   xmlns="http://www.w3.org/2000/svg"
   xmlns:svg="http://www.w3.org/2000/svg">
  <defs
     id="defs1">
    <clipPath
       clipPathUnits="userSpaceOnUse"
       id="clipPath640">
      <path
         d="M 0,0 H 792 V 612 H 0 Z"
         id="path640" />
    </clipPath>
  </defs>
  <g
     id="layer1"
     transform="translate(-36.992623,-40.768276)">
    <path
       id="path639"
       d="M 31.518,170.826 H 27 v 4.727 h 4.518 z m -2.919,2.196 c -0.288,-0.583 -0.124,-0.882 0.453,-0.859 0.26,0.01 0.548,0.089 0.766,0.226 0.472,0.297 0.774,0.951 0.291,1.464 -0.21,0.222 -0.523,0.384 -0.82,0.478 -0.676,0.214 -1.642,-0.255 -1.951,-0.897 -0.31,-0.647 -0.107,-1.35 0.442,-1.834 0.606,-0.533 1.304,-0.866 2.071,-0.675 1.641,0.408 1.969,2.134 1.372,3.316 -0.438,0.87 -1.805,1.634 -3.042,1.007 -0.481,-0.245 -0.907,-0.609 -1.064,-1.073 0.153,0.171 0.253,0.295 0.366,0.405 0.145,0.142 0.28,0.313 0.454,0.404 0.853,0.445 1.712,0.349 2.494,-0.138 0.577,-0.359 0.952,-0.931 0.88,-1.645 -0.084,-0.842 -0.755,-1.823 -1.761,-2.033 -0.758,-0.158 -1.54,0.34 -1.82,0.919 -0.411,0.85 0.322,1.931 1.284,1.944 0.653,0.009 0.934,-0.246 0.826,-0.868 -0.043,-0.248 -0.303,-0.459 -0.464,-0.687 -0.283,0.199 -0.517,0.364 -0.777,0.546"
       style="fill:#ffffff;fill-opacity:1;fill-rule:nonzero;stroke:none"
       transform="matrix(0.35277776,0,0,-0.35277776,27.467623,102.69947)"
       clip-path="url(#clipPath640)" />
    <path
       id="path641"
       d="m 37.59283,41.686514 c 0.03916,0.03669 0.07832,0.07302 0.117475,0.109715 0.02514,-7.94e-4 0.194019,-0.0074 0.259636,-0.12065 0.01482,-0.02506 0.02196,-0.04939 0.02434,-0.06385 0.0381,-0.219779 -0.06067,-0.309738 -0.291385,-0.306563 -0.339381,0.0046 -0.597959,0.385938 -0.452623,0.6858 0.0988,0.204259 0.374306,0.379942 0.641721,0.324202 0.355229,-0.07373 0.591608,-0.419806 0.621585,-0.717198 0.0254,-0.251529 -0.106892,-0.45367 -0.310806,-0.580318 -0.275854,-0.171802 -0.578908,-0.205669 -0.879475,-0.04868 -0.06173,0.0321 -0.109352,0.09243 -0.160496,0.142523 -0.03953,0.0388 -0.0748,0.08255 -0.129117,0.142875 0.05572,-0.163689 0.205661,-0.2921 0.375709,-0.378179 0.436033,-0.221544 0.918262,0.04798 1.07315,0.354896 0.210237,0.416983 0.09488,1.025877 -0.484029,1.16981 -0.270563,0.06738 -0.517155,-0.05009 -0.730594,-0.238125 -0.193675,-0.170743 -0.265642,-0.418748 -0.155919,-0.646993 0.108638,-0.226484 0.449792,-0.391938 0.68826,-0.316442 0.104432,0.03351 0.215186,0.09066 0.288925,0.168979 0.170736,0.180623 0.06384,0.41134 -0.102314,0.516115 -0.07689,0.04833 -0.178488,0.0762 -0.270219,0.07973 -0.06668,0.0028 -0.153458,-0.0024 -0.187325,-0.05997 -0.03246,-0.05468 -0.0077,-0.144288 0.0635,-0.217665"
       style="fill:#231f20;fill-opacity:1;fill-rule:nonzero;stroke:none;stroke-width:0.352777" />
  </g>
</svg>
